HIERARCHY
ROOT Hips
{
	OFFSET -13.091600 -28.302996 44.698402
	CHANNELS 6 Xposition Yposition Zposition Zrotation Xrotation Yrotation
	JOINT Chest
	{
		OFFSET -0.673000 0.623899 5.369202
		CHANNELS 6 Xposition Yposition Zposition Zrotation Xrotation Yrotation
		JOINT Chest2
		{
			OFFSET 0.000000 0.000000 4.415001
			CHANNELS 6 Xposition Yposition Zposition Zrotation Xrotation Yrotation
			JOINT Neck
			{
				OFFSET 0.000000 0.000002 10.273300
				CHANNELS 6 Xposition Yposition Zposition Zrotation Xrotation Yrotation
				JOINT Head
				{
					OFFSET 0.000000 0.000000 2.173897
					CHANNELS 6 Xposition Yposition Zposition Zrotation Xrotation Yrotation
					End Site
					{
						OFFSET 0.000000 0.000000 9.961800
					}
				}
			}
			JOINT LeftCollar
			{
				OFFSET 2.359900 -0.565201 5.928101
				CHANNELS 6 Xposition Yposition Zposition Zrotation Xrotation Yrotation
				JOINT LeftShoulder
				{
					OFFSET 5.443700 0.000000 0.000000
					CHANNELS 6 Xposition Yposition Zposition Zrotation Xrotation Yrotation
					JOINT LeftElbow
					{
						OFFSET 0.000000 0.000000 -10.615799
						CHANNELS 6 Xposition Yposition Zposition Zrotation Xrotation Yrotation
						JOINT LeftWrist
						{
							OFFSET 0.000000 -0.000002 -13.110302
							CHANNELS 6 Xposition Yposition Zposition Zrotation Xrotation Yrotation
							End Site
							{
								OFFSET 0.000000 0.000000 -2.173901
							}
						}
					}
				}
			}
			JOINT RightCollar
			{
				OFFSET -2.636600 -1.718800 6.889698
				CHANNELS 6 Xposition Yposition Zposition Zrotation Xrotation Yrotation
				JOINT RightShoulder
				{
					OFFSET -4.139101 0.000000 0.000000
					CHANNELS 6 Xposition Yposition Zposition Zrotation Xrotation Yrotation
					JOINT RightElbow
					{
						OFFSET 0.000000 0.000000 -10.471802
						CHANNELS 6 Xposition Yposition Zposition Zrotation Xrotation Yrotation
						JOINT RightWrist
						{
							OFFSET 0.000000 0.000000 -12.281898
							CHANNELS 6 Xposition Yposition Zposition Zrotation Xrotation Yrotation
							End Site
							{
								OFFSET 0.000000 -0.000002 -2.173901
							}
						}
					}
				}
			}
		}
	}
	JOINT LeftHip
	{
		OFFSET 2.273400 0.176701 -2.518002
		CHANNELS 6 Xposition Yposition Zposition Zrotation Xrotation Yrotation
		JOINT LeftKnee
		{
			OFFSET 0.000000 -0.000002 -20.456402
			CHANNELS 6 Xposition Yposition Zposition Zrotation Xrotation Yrotation
			JOINT LeftAnkle
			{
				OFFSET 0.000000 -0.000002 -16.635300
				CHANNELS 6 Xposition Yposition Zposition Zrotation Xrotation Yrotation
				End Site
				{
					OFFSET 0.000000 -8.812399 0.000001
				}
			}
		}
	}
	JOINT RightHip
	{
		OFFSET -1.914800 0.018101 -2.699299
		CHANNELS 6 Xposition Yposition Zposition Zrotation Xrotation Yrotation
		JOINT RightKnee
		{
			OFFSET 0.000000 -0.000002 -20.148901
			CHANNELS 6 Xposition Yposition Zposition Zrotation Xrotation Yrotation
			JOINT RightAnkle
			{
				OFFSET 0.000000 -0.000002 -16.838301
				CHANNELS 6 Xposition Yposition Zposition Zrotation Xrotation Yrotation
				End Site
				{
					OFFSET 0.000000 -8.328398 0.000001
				}
			}
		}
	}
}
MOTION
Frames: 6
Frame Time: 0.041667
-15.308699 23.708712 40.594002 1415.819422 4.490000 1.563577 -0.673002 0.623892 5.369213 -16.173217 33.744884 22.500496 0.000001 0.000001 4.415008 -0.171087 -7.074436 -0.783920 0.000002 0.000001 10.273299 52.895748 -4.002832 -6.431870 0.000000 -0.000008 2.173885 2.691650 -4.787540 5.605446 2.359899 -0.565197 5.928102 -0.801174 3.748718 17.347357 5.443707 0.000000 0.000001 -21.859993 -20.307906 -75.730173 -0.000000 -0.000001 -10.615798 609.610667 -158.787118 187.166882 -0.000001 -0.000002 -13.110299 46.545362 -362.699656 337.251027 -2.636602 -1.718798 6.889692 188.173692 -191.364716 183.416425 -4.139100 0.000002 0.000000 400.205618 -424.510573 468.832599 -0.000005 -0.000004 -10.471800 302.635546 -65.377457 -70.275530 0.000010 -0.000000 -12.281900 410.978356 13.023516 80.367851 2.273397 0.176701 -2.517999 -125.369406 -139.081120 -157.108435 0.000002 -0.000003 -20.456398 99.439652 127.168984 -115.061517 -0.000002 -0.000003 -16.635302 48.629273 0.522157 24.958278 -1.914798 0.018102 -2.699299 42.117159 201.298939 63.986421 -0.000003 -0.000004 -20.148901 155.570194 52.983598 -125.395825 -0.000001 -0.000001 -16.838301 -45.286497 2.518378 -14.316561
-15.337002 23.803011 40.579605 1415.954496 4.510572 1.499964 -0.673001 0.623895 5.369209 -16.626815 33.769845 22.917557 -0.000002 0.000002 4.415000 -0.121342 -7.060508 -0.780467 0.000005 -0.000007 10.273302 52.745385 -3.771117 -6.531674 -0.000004 0.000001 2.173901 2.769514 -4.758125 5.566399 2.359898 -0.565207 5.928103 -0.687085 3.668256 17.161815 5.443696 -0.000002 -0.000005 -21.812153 -20.649235 -75.931015 0.000001 -0.000001 -10.615794 609.055072 -158.903969 187.074169 0.000002 -0.000006 -13.110297 46.476131 -362.694957 337.260698 -2.636599 -1.718808 6.889706 188.123996 -191.504502 183.222871 -4.139094 -0.000003 0.000003 402.193012 -424.063605 470.305789 -0.000005 0.000004 -10.471794 303.543142 -64.512475 -68.848874 0.000001 0.000003 -12.281900 411.607362 12.897634 80.333174 2.273399 0.176703 -2.518000 -125.307388 -139.002491 -156.969113 0.000001 -0.000001 -20.456396 99.174156 127.501928 -114.894888 -0.000006 -0.000006 -16.635300 48.864092 0.631978 25.119930 -1.914798 0.018103 -2.699302 42.229694 201.343636 64.410385 -0.000000 -0.000004 -20.148911 155.693315 52.723200 -125.256148 -0.000005 -0.000001 -16.838303 -45.462118 2.495956 -14.456976
-15.364499 23.899710 40.562008 1416.071210 4.494040 1.486385 -0.673000 0.623898 5.369214 -17.058973 33.839025 23.277307 0.000000 -0.000004 4.415003 -0.065317 -7.048065 -0.776566 -0.000000 0.000000 10.273298 52.607845 -3.492205 -6.621639 -0.000001 -0.000009 2.173899 2.857348 -4.745979 5.494462 2.359896 -0.565201 5.928098 -0.599581 3.637416 17.015167 5.443696 -0.000006 -0.000002 -21.775326 -21.008388 -76.182113 -0.000003 -0.000001 -10.615797 608.546468 -159.022390 186.996181 0.000001 -0.000003 -13.110294 46.352444 -362.708071 337.246929 -2.636605 -1.718810 6.889695 188.095418 -191.683371 183.064807 -4.139100 0.000000 0.000006 404.289689 -423.591776 471.888098 -0.000001 0.000002 -10.471807 304.620044 -63.745172 -67.233643 0.000014 -0.000006 -12.281895 412.108561 12.767926 80.263930 2.273398 0.176704 -2.517994 -125.225084 -138.897730 -156.875443 0.000002 0.000002 -20.456394 98.895415 127.765601 -114.704175 -0.000006 -0.000007 -16.635298 49.046940 0.729595 25.224372 -1.914793 0.018105 -2.699297 42.374900 201.361517 64.931036 -0.000004 -0.000006 -20.148903 155.843429 52.459951 -125.091704 0.000004 -0.000002 -16.838295 -45.669554 2.477129 -14.576100
-15.390601 23.995405 40.542801 1416.153719 4.434102 1.494149 -0.672998 0.623899 5.369202 -17.382369 33.973463 23.560075 0.000001 -0.000002 4.415006 -0.041689 -7.051177 -0.773761 0.000002 -0.000002 10.273301 52.481374 -3.119981 -6.711039 -0.000002 -0.000006 2.173900 2.927506 -4.769210 5.416894 2.359897 -0.565206 5.928101 -0.591043 3.683523 16.934621 5.443701 -0.000006 -0.000002 -21.733725 -21.501326 -76.521416 0.000000 -0.000001 -10.615797 607.982896 -159.192585 186.923904 0.000001 -0.000002 -13.110299 46.206513 -362.717278 337.257365 -2.636604 -1.718806 6.889705 187.848193 -191.849536 183.805582 -4.139094 -0.000005 0.000006 405.566552 -423.734226 472.305013 0.000000 0.000005 -10.471800 305.844232 -62.888441 -65.534074 0.000001 0.000005 -12.281898 412.613121 12.573600 80.273547 2.273400 0.176702 -2.518009 -125.118465 -138.798323 -156.823561 0.000002 -0.000002 -20.456392 98.714689 127.878381 -114.573404 -0.000005 -0.000005 -16.635298 49.097804 0.834011 25.222734 -1.914793 0.018100 -2.699309 42.541352 201.411583 65.526137 -0.000001 -0.000004 -20.148905 155.915815 52.140667 -124.847061 0.000001 -0.000001 -16.838301 -45.933596 2.460238 -14.719734
-15.417897 24.092005 40.520107 1416.200601 4.343507 1.498476 -0.673000 0.623892 5.369206 -17.623292 34.139382 23.814295 -0.000003 0.000004 4.415004 -0.030403 -7.039126 -0.769610 0.000001 0.000001 10.273310 52.354059 -2.684427 -6.801753 -0.000002 -0.000000 2.173901 3.018696 -4.801699 5.308643 2.359896 -0.565198 5.928104 -0.667172 3.762986 16.857711 5.443701 0.000002 0.000003 -21.666289 -22.073790 -76.873520 0.000001 0.000000 -10.615790 607.355611 -159.374855 186.838582 0.000001 -0.000007 -13.110295 46.081934 -362.747740 337.280096 -2.636603 -1.718804 6.889704 187.707136 -192.009663 184.019107 -4.139093 -0.000002 0.000008 407.488184 -423.497383 473.597940 0.000000 -0.000000 -10.471797 307.125439 -62.122490 -63.797723 0.000001 0.000010 -12.281900 413.012031 12.355595 80.284803 2.273400 0.176699 -2.518003 -124.798935 -138.742070 -156.675032 0.000003 -0.000000 -20.456398 98.497748 127.807675 -114.470665 -0.000001 -0.000006 -16.635300 48.988982 0.944350 25.095015 -1.914795 0.018102 -2.699302 42.730538 201.503681 66.148108 -0.000001 -0.000005 -20.148897 156.001056 51.844011 -124.630011 -0.000000 -0.000003 -16.838297 -46.171587 2.411572 -14.935749
-15.444801 24.191416 40.496605 1416.192842 4.274220 1.457864 -0.673002 0.623894 5.369210 -17.806955 34.264993 24.104501 0.000007 0.000004 4.415003 -0.023054 -7.033521 -0.765340 -0.000001 0.000010 10.273300 52.235924 -2.220548 -6.933271 -0.000002 -0.000009 2.173895 3.075800 -4.863697 5.206021 2.359894 -0.565197 5.928099 -0.825156 3.903960 16.840489 5.443699 -0.000003 0.000002 -21.654082 -22.507355 -77.360171 0.000002 0.000000 -10.615798 606.986235 -159.574434 186.792601 0.000003 -0.000008 -13.110294 45.958017 -362.791590 337.144694 -2.636603 -1.718791 6.889700 188.513207 -192.580380 184.296331 -4.139098 -0.000003 0.000003 408.622706 -423.727178 475.084354 0.000001 -0.000001 -10.471802 308.471888 -61.431111 -62.073791 0.000013 0.000004 -12.281897 413.303161 12.131987 80.296626 2.273397 0.176702 -2.518000 -124.197510 -138.734352 -156.331391 0.000005 -0.000003 -20.456390 98.219575 127.563741 -114.383518 -0.000008 -0.000002 -16.635298 48.743751 1.058235 24.871290 -1.914801 0.018103 -2.699303 42.943083 201.677851 66.741508 -0.000002 -0.000010 -20.148907 156.195935 51.731798 -124.430406 0.000002 0.000001 -16.838305 -46.300042 2.466621 -15.121569
